<?xml version="1.0" encoding="utf-8"?>
<!-- Generator: Adobe Illustrator 16.0.0, SVG Export Plug-In . SVG Version: 6.00 Build 0)  -->
<!DOCTYPE svg PUBLIC "-//W3C//DTD SVG 1.1//EN" "http://www.w3.org/Graphics/SVG/1.1/DTD/svg11.dtd">
<svg version="1.1" id="Layer_1" xmlns="http://www.w3.org/2000/svg" xmlns:xlink="http://www.w3.org/1999/xlink" x="0px" y="0px"
	 width="2000px" height="2000px" viewBox="0 0 2000 2000" enable-background="new 0 0 2000 2000" xml:space="preserve">
<path fill="#E85AFC" d="M1923.025,55h-135.957C1773.218,55,1760,62.683,1760,76.304V196h-84V76.304
	C1676,62.683,1661.2,55,1647.345,55h-135.202C1498.288,55,1485,62.683,1485,76.304v411.208c0,13.617,13.288,27.489,27.143,27.489
	h135.202c13.855,0,28.655-13.872,28.655-27.489V356h84v131.511c0,13.617,13.218,27.489,27.068,27.489h135.957
	c13.859,0,21.975-13.872,21.975-27.489V76.304C1945,62.683,1936.885,55,1923.025,55z"/>
<path fill="#E85AFC" d="M496.889,195.532c-11.974-27.843-28.543-52.464-49.241-73.175c-20.721-20.703-45.341-37.276-73.175-49.246
	C346.482,61.09,316.385,55,285,55c-31.394,0-61.496,6.095-89.468,18.107c-27.852,11.978-52.471,28.547-73.176,49.246
	c-20.711,20.716-37.28,45.341-49.241,73.18C61.095,223.483,55,253.589,55,285c0,31.419,6.095,61.526,18.115,89.468
	c11.961,27.847,28.53,52.468,49.241,73.175c20.705,20.712,45.324,37.281,73.176,49.242c27.852,11.964,57.828,18.055,89.097,18.103
	L499.351,515c8.458,0,15.316-6.851,15.334-15.312C514.693,491.088,515,289.078,515,285C515,253.611,508.905,223.513,496.889,195.532
	z M286,304.476v69.771c-26-0.907-31.6-3.46-38.908-6.617c-10.825-4.665-18.827-11.071-27.02-19.274
	c-7.228-7.213-13.041-16.038-18.46-28.612c-4.365-10.111-6.575-21.476-6.575-34.745c0-11.965,2.386-23.653,7.189-34.763
	c4.634-10.76,11.135-20.383,19.355-28.603c8.038-8.039,17.682-14.521,28.666-19.264c10.742-4.64,22.445-6.98,34.781-6.98
	c12.327,0,24.029,2.349,34.75,6.971c10.924,4.721,20.562,11.205,28.626,19.264c6.125,6.125,12.608,16.071,19.277,31.517
	c3.301,7.654,5.383,16.857,6.342,29.857h-69.928C293.336,283,286,293.721,286,304.476z"/>
<rect x="570" y="146" fill-rule="evenodd" clip-rule="evenodd" fill="#8DA1DE" width="860" height="1854"/>
<rect x="760" y="1560" fill-rule="evenodd" clip-rule="evenodd" fill="#F2DA7C" width="480" height="440"/>
<path fill="#F2DA7C" d="M1311,454.598c0,22.221-18.181,40.402-40.402,40.402H729.402C707.181,495,689,476.818,689,454.598v-53.195
	C689,379.182,707.181,361,729.402,361h541.195c22.222,0,40.402,18.182,40.402,40.402V454.598z"/>
<path fill="#F2DA7C" d="M1311,809.598c0,22.313-18.089,40.402-40.402,40.402H729.402C707.089,850,689,831.911,689,809.598v-53.195
	C689,734.089,707.089,716,729.402,716h541.195c22.313,0,40.402,18.089,40.402,40.402V809.598z"/>
<path fill="#F2DA7C" d="M1311,1163.598c0,22.313-18.089,40.402-40.402,40.402H729.402c-22.313,0-40.402-18.089-40.402-40.402
	v-53.195c0-22.313,18.089-40.402,40.402-40.402h541.195c22.313,0,40.402,18.089,40.402,40.402V1163.598z"/>
<path fill="#6FEDAF" d="M1311,1519.598c0,22.222-18.181,40.402-40.402,40.402H729.402c-22.221,0-40.402-18.181-40.402-40.402
	v-53.195c0-22.222,18.181-40.402,40.402-40.402h541.195c22.222,0,40.402,18.181,40.402,40.402V1519.598z"/>
<path fill-rule="evenodd" clip-rule="evenodd" fill="#6FEDAF" d="M524.444,570H102.23H44.444C19.897,570,0,590.066,0,614.611v28.151
	v25.183V712h570V570H524.444z"/>
<path fill-rule="evenodd" clip-rule="evenodd" fill="#6FEDAF" d="M1475.556,570h422.214h57.786
	c24.547,0,44.444,20.066,44.444,44.611v28.151v25.183V712h-570V570H1475.556z"/>
<path fill-rule="evenodd" clip-rule="evenodd" fill="#6FEDAF" d="M1385.657,0H614.345C589.894,0,570,20.282,570,45.405V146h860
	V45.405C1430,20.282,1410.104,0,1385.657,0z"/>
<rect y="712" fill-rule="evenodd" clip-rule="evenodd" fill="#A169FC" width="570" height="1288"/>
<path fill="#E85AFC" d="M485,992.854c0,16.649-13.497,30.146-30.146,30.146H115.146C98.497,1023,85,1009.504,85,992.854v-55.709
	C85,920.496,98.497,907,115.146,907h339.709C471.503,907,485,920.496,485,937.146V992.854z"/>
<path fill="#E85AFC" d="M485,1320.854c0,16.649-13.497,30.146-30.145,30.146h-339.71C98.497,1351,85,1337.504,85,1320.854v-55.709
	c0-16.649,13.497-30.146,30.145-30.146h339.71c16.648,0,30.145,13.496,30.145,30.146V1320.854z"/>
<path fill="#E85AFC" d="M485,1648.854c0,16.649-13.497,30.146-30.146,30.146H115.146C98.497,1679,85,1665.504,85,1648.854v-55.709
	c0-16.649,13.497-30.146,30.146-30.146h339.709c16.649,0,30.146,13.496,30.146,30.146V1648.854z"/>
<rect x="1430" y="712" fill-rule="evenodd" clip-rule="evenodd" fill="#A169FC" width="570" height="1288"/>
<path fill="#E85AFC" d="M1915,992.854c0,16.649-13.496,30.146-30.146,30.146h-339.709c-16.649,0-30.146-13.496-30.146-30.146
	v-55.709c0-16.649,13.496-30.146,30.146-30.146h339.709c16.649,0,30.146,13.496,30.146,30.146V992.854z"/>
<path fill="#E85AFC" d="M1915,1320.854c0,16.649-13.496,30.146-30.145,30.146h-339.711c-16.648,0-30.145-13.496-30.145-30.146
	v-55.709c0-16.649,13.496-30.146,30.145-30.146h339.711c16.648,0,30.145,13.496,30.145,30.146V1320.854z"/>
<path fill="#E85AFC" d="M1915,1648.854c0,16.649-13.496,30.146-30.146,30.146h-339.709c-16.649,0-30.146-13.496-30.146-30.146
	v-55.709c0-16.649,13.496-30.146,30.146-30.146h339.709c16.649,0,30.146,13.496,30.146,30.146V1648.854z"/>
</svg>
